<?xml version="1.0" encoding="UTF-8" standalone="no"?>
<!DOCTYPE svg PUBLIC "-//W3C//DTD SVG 1.1//EN" "http://www.w3.org/Graphics/SVG/1.1/DTD/svg11.dtd">
<svg width="100%" height="100%" viewBox="0 0 8000 4500" version="1.1" xmlns="http://www.w3.org/2000/svg" xmlns:xlink="http://www.w3.org/1999/xlink" xml:space="preserve" xmlns:serif="http://www.serif.com/" style="fill-rule:evenodd;clip-rule:evenodd;stroke-linejoin:round;stroke-miterlimit:2;">
    <rect id="square" x="0" y="0" width="8000" height="4500" style="fill:none;"/>
    <path id="collisionInner" d="M1270.36,597.875L6138.33,595.113L6420.2,730.663L6616.45,1055.55L6702.2,1409.26L6618.25,1730.18L6374.29,1976.8L5403.04,2388.38L4871.16,2927.35L4363.83,3833.97L4014.38,4072.33L3681.05,3959.37L3581.21,3761.67L3606.66,3443.8L3739.48,3261.82L5560.12,2045.02L5840.99,1749.92L5817.04,1384.44L5655.29,1147.96L5310.12,1025.91L2095.28,1028.46L1795.06,1135.45L1478.02,1232.53L1216.74,1260.23L1117.77,1208.69L974.135,1135.05L932.064,941.471L1270.36,597.871L1270.36,597.875Z" style="fill:none;"/>
    <path id="collisionOuter" d="M1105.63,163.121L6290.7,187.692L6585.87,281.875L6871.57,478.967L7065.74,748.396L7191.03,1135.43L7152.2,1699.49L6990.28,1967.16L6679.82,2238.54L5906.74,2579.82L5650.57,2722.89L5400.99,2953.97L5262.32,3159.71L4909.32,3607.12L4544.66,4251L4318.03,4400.54L3924.18,4467.46L3509.99,4350.08L3184.42,4012.78L3135.17,3546.36L3317.75,3036.71L5131.82,1868.83L5296.03,1731.87L5285.07,1590.95L5184.66,1500.17L4901.41,1468.25L4659.16,1455.46L2273.25,1472.93L1929.18,1502.81L1505.57,1708.69L1221.82,1768.43L642.323,1571.17L390.048,1153.12L382.365,812.42L461.481,563.878L1105.63,163.124L1105.63,163.121Z" style="fill:none;"/>
    <path id="spawn" d="M3634.12,317.654L3826.8,317.217" style="fill:none;"/>
    <path id="startFinishLine" d="M3915.99,95.358L3911.45,685.671" style="fill:none;"/>
    <path id="checkpoint1" d="M4910.44,862.765L4896.82,1507.57" style="fill:none;"/>
    <path id="checkpoint2" d="M5101.16,2524.72L5582.49,2865.28" style="fill:none;"/>
</svg>
