<?xml version="1.0" encoding="UTF-8" standalone="no"?>
<!DOCTYPE svg PUBLIC "-//W3C//DTD SVG 1.1//EN" "http://www.w3.org/Graphics/SVG/1.1/DTD/svg11.dtd">
<svg width="100%" height="100%" viewBox="0 0 1920 1080" version="1.1" xmlns="http://www.w3.org/2000/svg" xmlns:xlink="http://www.w3.org/1999/xlink" xml:space="preserve" xmlns:serif="http://www.serif.com/" style="fill-rule:evenodd;clip-rule:evenodd;stroke-linejoin:round;stroke-miterlimit:2;">
    <rect id="square" x="0" y="0" width="1920" height="1080" style="fill:none;"/>
    <path id="collisionInner" d="M304.887,143.49L1473.2,142.827L1540.85,175.359L1587.95,253.331L1608.53,338.223L1588.38,415.243L1529.83,474.433L1296.73,573.21L1169.08,702.564L1047.32,920.152L963.451,977.36L883.452,950.249L859.492,902.801L865.599,826.512L897.476,782.837L1334.43,490.806L1401.84,419.983L1396.09,332.266L1357.27,275.511L1274.43,246.22L502.869,246.831L430.817,272.51L354.726,295.807L292.018,302.457L268.267,290.086L233.794,272.413L223.697,225.954L304.887,143.49Z" style="fill:none;"/>
    <path id="collisionOuter" d="M265.352,39.149L1509.77,45.046L1580.61,67.65L1649.18,114.952L1695.78,179.615L1725.85,272.503L1716.53,407.877L1677.67,472.118L1603.16,537.25L1417.62,619.156L1356.14,653.494L1296.24,708.952L1262.96,758.33L1178.24,865.709L1090.72,1020.24L1036.33,1056.13L941.806,1072.19L842.4,1044.02L764.263,963.066L752.442,851.127L796.263,728.81L1231.64,448.518L1271.05,415.648L1268.42,381.827L1244.32,360.04L1176.34,352.378L1118.2,349.31L545.581,353.502L463.004,360.673L361.338,410.084L293.239,424.423L154.159,377.08L93.613,276.748L91.769,194.98L110.757,135.33L265.352,39.149Z" style="fill:none;"/>
    <path id="spawn" d="M872.189,76.237L918.431,76.132" style="fill:none;"/>
</svg>
