<?xml version="1.0" encoding="UTF-8" standalone="no"?>
<!DOCTYPE svg PUBLIC "-//W3C//DTD SVG 1.1//EN" "http://www.w3.org/Graphics/SVG/1.1/DTD/svg11.dtd">
<svg width="100%" height="100%" viewBox="0 0 1920 1080" version="1.1" xmlns="http://www.w3.org/2000/svg" xmlns:xlink="http://www.w3.org/1999/xlink" xml:space="preserve" xmlns:serif="http://www.serif.com/" style="fill-rule:evenodd;clip-rule:evenodd;stroke-linejoin:round;stroke-miterlimit:2;">
    <rect id="square" x="0" y="0" width="1920" height="1080" style="fill:none;"/>
    <path id="collisionOuter" d="M163.896,278.936L321.245,270.592L370.686,299.321L413.713,352.105L428.134,435.213L435.451,482.462L486.814,494.736L496.035,458.694L479.943,347.241L508.976,288.201L588.641,261.75L672.653,275.23L731.581,324.447L764.439,414.876L786.638,486.767L879.184,540L1101.93,549.442L1166.97,519.577L1227.05,499.678L1371.01,561.221L1412.32,565.178L1424.57,540L1398.11,479.866L1352.49,469.353L905.404,504.485L832.209,464.16L806.57,389.268L827.139,285.058L863.441,259.217L1483.48,232.485L1823.74,228.536L1886.49,265.879L1908.72,325.402L1885.19,412.392L1564.47,806.354L1391.31,798.247L846.648,755.284L440.757,721.174L339.84,744.445L256.113,871.805L196.395,928.627L131.896,939.039L46.835,883.577L27.094,613.873L25.937,391.538L42.767,336.189L89.716,291.453L163.896,278.936Z" style="fill:none;"/>
    <path id="collisionInner" d="M906.284,350.048L929.543,338.365L1038.89,340.966L1465.49,362.367L1577.34,444.198L1608.35,540L1598.76,607.238L1505.39,682.816L253.978,583.787L148.839,519.952L116.853,439.484L136.741,387.859L277.132,349.684L310.26,363.202L337.431,415.91L346.022,504.852L393.133,568.992L520.905,583.787L582.958,528.554L585.97,464.205L568.702,375.701L596.715,352.401L655.999,385.308L676.044,519.105L743.798,595.705L1177.79,628.425L1226.22,583.787L1329.23,642.007L1417.78,652.029L1517.79,583.787L1533.55,507.445L1474.18,403.584L1365.31,375.244L1089.28,399.455L967.33,415.071L914.467,406.446L906.284,350.048Z" style="fill:none;"/>
    <path id="spawn" d="M862.602,703.407C859.016,703.407 801.359,692.789 801.359,692.789" style="fill:none;"/>
</svg>
